<svg xmlns="http://www.w3.org/2000/svg" xmlns:xlink="http://www.w3.org/1999/xlink" width="160" zoomAndPan="magnify" viewBox="0 0 120 119.999999" height="160" preserveAspectRatio="xMidYMid meet" version="1.0"><defs><g/><clipPath id="53c9816524"><rect x="0" width="71" y="0" height="37"/></clipPath><clipPath id="e9a2ae15af"><path d="M 1 3 L 23.960938 3 L 23.960938 9 L 1 9 Z M 1 3 " clip-rule="nonzero"/></clipPath><clipPath id="49d095c4bc"><rect x="0" width="24" y="0" height="11"/></clipPath><clipPath id="c3e6cc1112"><path d="M 0.199219 2 L 31 2 L 31 8 L 0.199219 8 Z M 0.199219 2 " clip-rule="nonzero"/></clipPath><clipPath id="c1ee3bf8ad"><rect x="0" width="45" y="0" height="11"/></clipPath><clipPath id="965b23df35"><rect x="0" width="48" y="0" height="10"/></clipPath></defs><g transform="matrix(1, 0, 0, 1, 0, 35)"><g clip-path="url(#53c9816524)"><g fill="#000000" fill-opacity="1"><g transform="translate(0.00000075, 28.855945)"><g><path d="M 18.515625 -5.15625 L 18.515625 0 L 1.65625 0 L 1.65625 -20.28125 L 18.140625 -20.28125 L 18.140625 -15.125 L 8.375 -15.125 L 8.375 -12.75 L 16.953125 -12.75 L 16.953125 -7.828125 L 8.375 -7.828125 L 8.375 -5.15625 Z M 18.515625 -5.15625 "/></g></g></g><g fill="#000000" fill-opacity="1"><g transform="translate(19.488889, 28.855945)"><g><path d="M 15.46875 -3.53125 L 7.765625 -3.53125 L 6.40625 0 L -0.546875 0 L 8.3125 -20.28125 L 15.03125 -20.28125 L 23.90625 0 L 16.828125 0 Z M 13.59375 -8.453125 L 11.609375 -13.5625 L 9.640625 -8.453125 Z M 13.59375 -8.453125 "/></g></g></g><g fill="#000000" fill-opacity="1"><g transform="translate(43.842965, 28.855945)"><g><path d="M 15.46875 -3.53125 L 7.765625 -3.53125 L 6.40625 0 L -0.546875 0 L 8.3125 -20.28125 L 15.03125 -20.28125 L 23.90625 0 L 16.828125 0 Z M 13.59375 -8.453125 L 11.609375 -13.5625 L 9.640625 -8.453125 Z M 13.59375 -8.453125 "/></g></g></g></g></g><g transform="matrix(1, 0, 0, 1, 67, 41)"><g clip-path="url(#49d095c4bc)"><g clip-path="url(#e9a2ae15af)"><g fill="#000000" fill-opacity="1"><g transform="translate(0.525574, 8.088777)"><g><path d="M 1.578125 -2.125 L 1.578125 -0.796875 L 3.890625 -0.796875 L 3.890625 0 L 0.625 0 L 0.625 -4.828125 L 3.828125 -4.828125 L 3.828125 -4.03125 L 1.578125 -4.03125 L 1.578125 -2.90625 L 3.546875 -2.90625 L 3.546875 -2.125 Z M 1.578125 -2.125 "/></g></g><g transform="translate(4.674749, 8.088777)"><g><path d="M 0.625 0 L 0.625 -4.828125 L 2.5625 -4.828125 C 3.0625 -4.828125 3.4375 -4.710938 3.6875 -4.484375 C 3.945312 -4.253906 4.078125 -3.9375 4.078125 -3.53125 C 4.078125 -3.238281 4.003906 -3 3.859375 -2.8125 C 3.710938 -2.625 3.488281 -2.476562 3.1875 -2.375 L 3.1875 -2.3125 C 3.34375 -2.25 3.46875 -2.148438 3.5625 -2.015625 C 3.65625 -1.890625 3.742188 -1.695312 3.828125 -1.4375 L 4.3125 0 L 3.328125 0 L 2.859375 -1.4375 C 2.804688 -1.582031 2.75 -1.695312 2.6875 -1.78125 C 2.625 -1.863281 2.546875 -1.921875 2.453125 -1.953125 C 2.359375 -1.992188 2.238281 -2.015625 2.09375 -2.015625 L 1.578125 -2.015625 L 1.578125 0 Z M 2.453125 -2.765625 C 2.910156 -2.765625 3.140625 -2.984375 3.140625 -3.421875 C 3.140625 -3.859375 2.910156 -4.078125 2.453125 -4.078125 L 1.578125 -4.078125 L 1.578125 -2.765625 Z M 2.453125 -2.765625 "/></g></g><g transform="translate(9.187017, 8.088777)"><g><path d="M 2.640625 0.0625 C 2.191406 0.0625 1.796875 -0.0234375 1.453125 -0.203125 C 1.117188 -0.378906 0.851562 -0.648438 0.65625 -1.015625 C 0.46875 -1.390625 0.375 -1.859375 0.375 -2.421875 C 0.375 -2.972656 0.46875 -3.429688 0.65625 -3.796875 C 0.851562 -4.171875 1.117188 -4.445312 1.453125 -4.625 C 1.796875 -4.8125 2.191406 -4.90625 2.640625 -4.90625 C 3.078125 -4.90625 3.460938 -4.8125 3.796875 -4.625 C 4.140625 -4.445312 4.40625 -4.171875 4.59375 -3.796875 C 4.78125 -3.429688 4.875 -2.972656 4.875 -2.421875 C 4.875 -1.859375 4.78125 -1.390625 4.59375 -1.015625 C 4.40625 -0.648438 4.140625 -0.378906 3.796875 -0.203125 C 3.460938 -0.0234375 3.078125 0.0625 2.640625 0.0625 Z M 2.640625 -0.765625 C 3.046875 -0.765625 3.351562 -0.894531 3.5625 -1.15625 C 3.78125 -1.414062 3.890625 -1.835938 3.890625 -2.421875 C 3.890625 -2.992188 3.78125 -3.410156 3.5625 -3.671875 C 3.351562 -3.941406 3.046875 -4.078125 2.640625 -4.078125 C 2.222656 -4.078125 1.90625 -3.941406 1.6875 -3.671875 C 1.46875 -3.410156 1.359375 -2.992188 1.359375 -2.421875 C 1.359375 -1.835938 1.46875 -1.414062 1.6875 -1.15625 C 1.90625 -0.894531 2.222656 -0.765625 2.640625 -0.765625 Z M 2.640625 -0.765625 "/></g></g><g transform="translate(14.445278, 8.088777)"><g><path d="M 2.359375 -4.828125 C 3.148438 -4.828125 3.75 -4.625 4.15625 -4.21875 C 4.570312 -3.8125 4.78125 -3.210938 4.78125 -2.421875 C 4.78125 -1.617188 4.570312 -1.015625 4.15625 -0.609375 C 3.75 -0.203125 3.148438 0 2.359375 0 L 0.625 0 L 0.625 -4.828125 Z M 2.3125 -0.796875 C 2.8125 -0.796875 3.179688 -0.921875 3.421875 -1.171875 C 3.671875 -1.429688 3.796875 -1.847656 3.796875 -2.421875 C 3.796875 -2.984375 3.671875 -3.390625 3.421875 -3.640625 C 3.179688 -3.898438 2.8125 -4.03125 2.3125 -4.03125 L 1.578125 -4.03125 L 1.578125 -0.796875 Z M 2.3125 -0.796875 "/></g></g><g transform="translate(19.604514, 8.088777)"><g><path d="M 1.578125 -2.125 L 1.578125 -0.796875 L 3.890625 -0.796875 L 3.890625 0 L 0.625 0 L 0.625 -4.828125 L 3.828125 -4.828125 L 3.828125 -4.03125 L 1.578125 -4.03125 L 1.578125 -2.90625 L 3.546875 -2.90625 L 3.546875 -2.125 Z M 1.578125 -2.125 "/></g></g></g></g></g></g><g transform="matrix(1, 0, 0, 1, 67, 49)"><g clip-path="url(#c1ee3bf8ad)"><g clip-path="url(#c3e6cc1112)"><g fill="#000000" fill-opacity="1"><g transform="translate(0.72523, 7.823111)"><g><path d="M 4.6875 0 L 3.671875 0 L 3.3125 -1.125 L 1.4375 -1.125 L 1.0625 0 L 0.078125 0 L 1.765625 -4.890625 L 3 -4.890625 Z M 2.328125 -3.859375 L 1.6875 -1.9375 L 3.03125 -1.9375 L 2.40625 -3.859375 Z M 2.328125 -3.859375 "/></g></g><g transform="translate(5.485254, 7.823111)"><g><path d="M 0.640625 0 L 0.640625 -4.890625 L 2.59375 -4.890625 C 3.101562 -4.890625 3.484375 -4.769531 3.734375 -4.53125 C 3.992188 -4.300781 4.125 -3.984375 4.125 -3.578125 C 4.125 -3.273438 4.046875 -3.03125 3.890625 -2.84375 C 3.742188 -2.65625 3.523438 -2.507812 3.234375 -2.40625 L 3.234375 -2.34375 C 3.378906 -2.269531 3.5 -2.164062 3.59375 -2.03125 C 3.695312 -1.90625 3.789062 -1.710938 3.875 -1.453125 L 4.359375 0 L 3.359375 0 L 2.890625 -1.453125 C 2.835938 -1.609375 2.78125 -1.722656 2.71875 -1.796875 C 2.65625 -1.878906 2.578125 -1.9375 2.484375 -1.96875 C 2.390625 -2.007812 2.269531 -2.03125 2.125 -2.03125 L 1.59375 -2.03125 L 1.59375 0 Z M 2.484375 -2.796875 C 2.953125 -2.796875 3.1875 -3.015625 3.1875 -3.453125 C 3.1875 -3.898438 2.953125 -4.125 2.484375 -4.125 L 1.59375 -4.125 L 1.59375 -2.796875 Z M 2.484375 -2.796875 "/></g></g><g transform="translate(10.051536, 7.823111)"><g><path d="M 2.671875 0.0625 C 2.222656 0.0625 1.828125 -0.0234375 1.484375 -0.203125 C 1.140625 -0.390625 0.867188 -0.671875 0.671875 -1.046875 C 0.484375 -1.429688 0.390625 -1.894531 0.390625 -2.4375 C 0.390625 -2.988281 0.484375 -3.453125 0.671875 -3.828125 C 0.867188 -4.203125 1.140625 -4.484375 1.484375 -4.671875 C 1.828125 -4.859375 2.222656 -4.953125 2.671875 -4.953125 C 3.140625 -4.953125 3.535156 -4.859375 3.859375 -4.671875 C 4.191406 -4.492188 4.429688 -4.21875 4.578125 -3.84375 L 3.859375 -3.40625 L 3.78125 -3.40625 C 3.675781 -3.664062 3.535156 -3.847656 3.359375 -3.953125 C 3.179688 -4.066406 2.953125 -4.125 2.671875 -4.125 C 2.265625 -4.125 1.945312 -3.988281 1.71875 -3.71875 C 1.488281 -3.445312 1.375 -3.019531 1.375 -2.4375 C 1.375 -1.863281 1.488281 -1.441406 1.71875 -1.171875 C 1.945312 -0.898438 2.265625 -0.765625 2.671875 -0.765625 C 3.304688 -0.765625 3.695312 -1.070312 3.84375 -1.6875 L 3.921875 -1.6875 L 4.625 -1.3125 C 4.5 -0.851562 4.273438 -0.507812 3.953125 -0.28125 C 3.628906 -0.0507812 3.203125 0.0625 2.671875 0.0625 Z M 2.671875 0.0625 "/></g></g><g transform="translate(14.841622, 7.823111)"><g><path d="M 3.796875 -3.046875 L 3.796875 -4.890625 L 4.75 -4.890625 L 4.75 0 L 3.796875 0 L 3.796875 -2.21875 L 1.59375 -2.21875 L 1.59375 0 L 0.640625 0 L 0.640625 -4.890625 L 1.59375 -4.890625 L 1.59375 -3.046875 Z M 3.796875 -3.046875 "/></g></g><g transform="translate(20.229635, 7.823111)"><g><path d="M 1.59375 0 L 0.640625 0 L 0.640625 -4.890625 L 1.59375 -4.890625 Z M 1.59375 0 "/></g></g><g transform="translate(22.467681, 7.823111)"><g><path d="M 3.921875 -4.890625 L 3.921875 -4.078125 L 2.5 -4.078125 L 2.5 0 L 1.546875 0 L 1.546875 -4.078125 L 0.140625 -4.078125 L 0.140625 -4.890625 Z M 3.921875 -4.890625 "/></g></g><g transform="translate(26.516206, 7.823111)"><g><path d="M 1.59375 -2.140625 L 1.59375 -0.8125 L 3.9375 -0.8125 L 3.9375 0 L 0.640625 0 L 0.640625 -4.890625 L 3.875 -4.890625 L 3.875 -4.078125 L 1.59375 -4.078125 L 1.59375 -2.9375 L 3.59375 -2.9375 L 3.59375 -2.140625 Z M 1.59375 -2.140625 "/></g></g></g></g><g fill="#000000" fill-opacity="1"><g transform="translate(30.6449, 7.823111)"><g><path d="M 2.671875 0.0625 C 2.222656 0.0625 1.828125 -0.0234375 1.484375 -0.203125 C 1.140625 -0.390625 0.867188 -0.671875 0.671875 -1.046875 C 0.484375 -1.429688 0.390625 -1.894531 0.390625 -2.4375 C 0.390625 -2.988281 0.484375 -3.453125 0.671875 -3.828125 C 0.867188 -4.203125 1.140625 -4.484375 1.484375 -4.671875 C 1.828125 -4.859375 2.222656 -4.953125 2.671875 -4.953125 C 3.140625 -4.953125 3.535156 -4.859375 3.859375 -4.671875 C 4.191406 -4.492188 4.429688 -4.21875 4.578125 -3.84375 L 3.859375 -3.40625 L 3.78125 -3.40625 C 3.675781 -3.664062 3.535156 -3.847656 3.359375 -3.953125 C 3.179688 -4.066406 2.953125 -4.125 2.671875 -4.125 C 2.265625 -4.125 1.945312 -3.988281 1.71875 -3.71875 C 1.488281 -3.445312 1.375 -3.019531 1.375 -2.4375 C 1.375 -1.863281 1.488281 -1.441406 1.71875 -1.171875 C 1.945312 -0.898438 2.265625 -0.765625 2.671875 -0.765625 C 3.304688 -0.765625 3.695312 -1.070312 3.84375 -1.6875 L 3.921875 -1.6875 L 4.625 -1.3125 C 4.5 -0.851562 4.273438 -0.507812 3.953125 -0.28125 C 3.628906 -0.0507812 3.203125 0.0625 2.671875 0.0625 Z M 2.671875 0.0625 "/></g></g><g transform="translate(35.434987, 7.823111)"><g><path d="M 3.921875 -4.890625 L 3.921875 -4.078125 L 2.5 -4.078125 L 2.5 0 L 1.546875 0 L 1.546875 -4.078125 L 0.140625 -4.078125 L 0.140625 -4.890625 Z M 3.921875 -4.890625 "/></g></g></g><g fill="#000000" fill-opacity="1"><g transform="translate(39.540298, 7.823111)"><g><path d="M 2.171875 0.0625 C 1.828125 0.0625 1.519531 0.0195312 1.25 -0.0625 C 0.988281 -0.144531 0.769531 -0.253906 0.59375 -0.390625 C 0.425781 -0.523438 0.296875 -0.671875 0.203125 -0.828125 L 0.734375 -1.484375 L 0.8125 -1.484375 C 0.957031 -1.265625 1.144531 -1.085938 1.375 -0.953125 C 1.601562 -0.828125 1.867188 -0.765625 2.171875 -0.765625 C 2.421875 -0.765625 2.613281 -0.816406 2.75 -0.921875 C 2.882812 -1.035156 2.953125 -1.1875 2.953125 -1.375 C 2.953125 -1.488281 2.929688 -1.582031 2.890625 -1.65625 C 2.847656 -1.738281 2.773438 -1.804688 2.671875 -1.859375 C 2.578125 -1.921875 2.445312 -1.972656 2.28125 -2.015625 L 1.640625 -2.15625 C 1.203125 -2.257812 0.875 -2.425781 0.65625 -2.65625 C 0.445312 -2.882812 0.34375 -3.1875 0.34375 -3.5625 C 0.34375 -3.84375 0.410156 -4.085938 0.546875 -4.296875 C 0.691406 -4.503906 0.894531 -4.664062 1.15625 -4.78125 C 1.414062 -4.894531 1.734375 -4.953125 2.109375 -4.953125 C 2.484375 -4.953125 2.800781 -4.898438 3.0625 -4.796875 C 3.332031 -4.703125 3.5625 -4.550781 3.75 -4.34375 L 3.265625 -3.703125 L 3.1875 -3.703125 C 3.050781 -3.835938 2.894531 -3.941406 2.71875 -4.015625 C 2.539062 -4.085938 2.335938 -4.125 2.109375 -4.125 C 1.835938 -4.125 1.632812 -4.078125 1.5 -3.984375 C 1.363281 -3.890625 1.296875 -3.765625 1.296875 -3.609375 C 1.296875 -3.453125 1.34375 -3.328125 1.4375 -3.234375 C 1.53125 -3.140625 1.695312 -3.066406 1.9375 -3.015625 L 2.578125 -2.890625 C 3.054688 -2.785156 3.398438 -2.613281 3.609375 -2.375 C 3.828125 -2.132812 3.9375 -1.820312 3.9375 -1.4375 C 3.9375 -1.132812 3.867188 -0.867188 3.734375 -0.640625 C 3.597656 -0.410156 3.398438 -0.234375 3.140625 -0.109375 C 2.878906 0.00390625 2.554688 0.0625 2.171875 0.0625 Z M 2.171875 0.0625 "/></g></g></g></g></g><g transform="matrix(1, 0, 0, 1, 67, 57)"><g clip-path="url(#965b23df35)"><g fill="#000000" fill-opacity="1"><g transform="translate(1.284723, 7.515792)"><g><path d="M 4.640625 0 L 3.640625 0 L 3.28125 -1.109375 L 1.421875 -1.109375 L 1.0625 0 L 0.078125 0 L 1.75 -4.84375 L 2.96875 -4.84375 Z M 2.296875 -3.828125 L 1.671875 -1.921875 L 3.015625 -1.921875 L 2.390625 -3.828125 Z M 2.296875 -3.828125 "/></g></g><g transform="translate(5.997948, 7.515792)"><g><path d="M 2.140625 0.0625 C 1.804688 0.0625 1.507812 0.0234375 1.25 -0.046875 C 0.988281 -0.128906 0.769531 -0.238281 0.59375 -0.375 C 0.414062 -0.507812 0.285156 -0.660156 0.203125 -0.828125 L 0.71875 -1.46875 L 0.796875 -1.46875 C 0.941406 -1.25 1.128906 -1.078125 1.359375 -0.953125 C 1.585938 -0.828125 1.847656 -0.765625 2.140625 -0.765625 C 2.398438 -0.765625 2.59375 -0.816406 2.71875 -0.921875 C 2.851562 -1.023438 2.921875 -1.175781 2.921875 -1.375 C 2.921875 -1.488281 2.898438 -1.582031 2.859375 -1.65625 C 2.816406 -1.726562 2.742188 -1.789062 2.640625 -1.84375 C 2.546875 -1.90625 2.414062 -1.957031 2.25 -2 L 1.625 -2.140625 C 1.195312 -2.234375 0.875 -2.394531 0.65625 -2.625 C 0.445312 -2.863281 0.34375 -3.164062 0.34375 -3.53125 C 0.34375 -3.800781 0.410156 -4.039062 0.546875 -4.25 C 0.679688 -4.457031 0.878906 -4.617188 1.140625 -4.734375 C 1.398438 -4.847656 1.710938 -4.90625 2.078125 -4.90625 C 2.453125 -4.90625 2.769531 -4.851562 3.03125 -4.75 C 3.300781 -4.65625 3.53125 -4.507812 3.71875 -4.3125 L 3.234375 -3.65625 L 3.15625 -3.65625 C 3.019531 -3.800781 2.863281 -3.910156 2.6875 -3.984375 C 2.507812 -4.054688 2.304688 -4.09375 2.078125 -4.09375 C 1.816406 -4.09375 1.617188 -4.046875 1.484375 -3.953125 C 1.347656 -3.859375 1.28125 -3.726562 1.28125 -3.5625 C 1.28125 -3.414062 1.328125 -3.296875 1.421875 -3.203125 C 1.515625 -3.109375 1.679688 -3.039062 1.921875 -3 L 2.5625 -2.859375 C 3.03125 -2.765625 3.367188 -2.597656 3.578125 -2.359375 C 3.785156 -2.117188 3.890625 -1.804688 3.890625 -1.421875 C 3.890625 -1.117188 3.820312 -0.851562 3.6875 -0.625 C 3.5625 -0.40625 3.367188 -0.234375 3.109375 -0.109375 C 2.847656 0.00390625 2.523438 0.0625 2.140625 0.0625 Z M 2.140625 0.0625 "/></g></g><g transform="translate(10.1522, 7.515792)"><g><path d="M 2.140625 0.0625 C 1.804688 0.0625 1.507812 0.0234375 1.25 -0.046875 C 0.988281 -0.128906 0.769531 -0.238281 0.59375 -0.375 C 0.414062 -0.507812 0.285156 -0.660156 0.203125 -0.828125 L 0.71875 -1.46875 L 0.796875 -1.46875 C 0.941406 -1.25 1.128906 -1.078125 1.359375 -0.953125 C 1.585938 -0.828125 1.847656 -0.765625 2.140625 -0.765625 C 2.398438 -0.765625 2.59375 -0.816406 2.71875 -0.921875 C 2.851562 -1.023438 2.921875 -1.175781 2.921875 -1.375 C 2.921875 -1.488281 2.898438 -1.582031 2.859375 -1.65625 C 2.816406 -1.726562 2.742188 -1.789062 2.640625 -1.84375 C 2.546875 -1.90625 2.414062 -1.957031 2.25 -2 L 1.625 -2.140625 C 1.195312 -2.234375 0.875 -2.394531 0.65625 -2.625 C 0.445312 -2.863281 0.34375 -3.164062 0.34375 -3.53125 C 0.34375 -3.800781 0.410156 -4.039062 0.546875 -4.25 C 0.679688 -4.457031 0.878906 -4.617188 1.140625 -4.734375 C 1.398438 -4.847656 1.710938 -4.90625 2.078125 -4.90625 C 2.453125 -4.90625 2.769531 -4.851562 3.03125 -4.75 C 3.300781 -4.65625 3.53125 -4.507812 3.71875 -4.3125 L 3.234375 -3.65625 L 3.15625 -3.65625 C 3.019531 -3.800781 2.863281 -3.910156 2.6875 -3.984375 C 2.507812 -4.054688 2.304688 -4.09375 2.078125 -4.09375 C 1.816406 -4.09375 1.617188 -4.046875 1.484375 -3.953125 C 1.347656 -3.859375 1.28125 -3.726562 1.28125 -3.5625 C 1.28125 -3.414062 1.328125 -3.296875 1.421875 -3.203125 C 1.515625 -3.109375 1.679688 -3.039062 1.921875 -3 L 2.5625 -2.859375 C 3.03125 -2.765625 3.367188 -2.597656 3.578125 -2.359375 C 3.785156 -2.117188 3.890625 -1.804688 3.890625 -1.421875 C 3.890625 -1.117188 3.820312 -0.851562 3.6875 -0.625 C 3.5625 -0.40625 3.367188 -0.234375 3.109375 -0.109375 C 2.847656 0.00390625 2.523438 0.0625 2.140625 0.0625 Z M 2.140625 0.0625 "/></g></g><g transform="translate(14.306453, 7.515792)"><g><path d="M 2.640625 0.0625 C 2.191406 0.0625 1.796875 -0.0234375 1.453125 -0.203125 C 1.117188 -0.378906 0.851562 -0.65625 0.65625 -1.03125 C 0.46875 -1.40625 0.375 -1.867188 0.375 -2.421875 C 0.375 -2.972656 0.46875 -3.4375 0.65625 -3.8125 C 0.851562 -4.1875 1.117188 -4.460938 1.453125 -4.640625 C 1.796875 -4.816406 2.191406 -4.90625 2.640625 -4.90625 C 3.078125 -4.90625 3.460938 -4.816406 3.796875 -4.640625 C 4.140625 -4.460938 4.40625 -4.1875 4.59375 -3.8125 C 4.789062 -3.4375 4.890625 -2.972656 4.890625 -2.421875 C 4.890625 -1.867188 4.789062 -1.40625 4.59375 -1.03125 C 4.40625 -0.65625 4.140625 -0.378906 3.796875 -0.203125 C 3.460938 -0.0234375 3.078125 0.0625 2.640625 0.0625 Z M 2.640625 -0.765625 C 3.046875 -0.765625 3.359375 -0.894531 3.578125 -1.15625 C 3.796875 -1.414062 3.90625 -1.835938 3.90625 -2.421875 C 3.90625 -2.992188 3.796875 -3.410156 3.578125 -3.671875 C 3.359375 -3.941406 3.046875 -4.078125 2.640625 -4.078125 C 2.222656 -4.078125 1.90625 -3.941406 1.6875 -3.671875 C 1.476562 -3.410156 1.375 -2.992188 1.375 -2.421875 C 1.375 -1.835938 1.476562 -1.414062 1.6875 -1.15625 C 1.90625 -0.894531 2.222656 -0.765625 2.640625 -0.765625 Z M 2.640625 -0.765625 "/></g></g><g transform="translate(19.575342, 7.515792)"><g><path d="M 2.640625 0.0625 C 2.203125 0.0625 1.8125 -0.0234375 1.46875 -0.203125 C 1.125 -0.390625 0.851562 -0.671875 0.65625 -1.046875 C 0.46875 -1.421875 0.375 -1.878906 0.375 -2.421875 C 0.375 -2.960938 0.46875 -3.421875 0.65625 -3.796875 C 0.851562 -4.171875 1.125 -4.445312 1.46875 -4.625 C 1.8125 -4.8125 2.203125 -4.90625 2.640625 -4.90625 C 3.109375 -4.90625 3.503906 -4.8125 3.828125 -4.625 C 4.160156 -4.445312 4.394531 -4.171875 4.53125 -3.796875 L 3.828125 -3.375 L 3.75 -3.375 C 3.644531 -3.632812 3.503906 -3.816406 3.328125 -3.921875 C 3.148438 -4.035156 2.921875 -4.09375 2.640625 -4.09375 C 2.242188 -4.09375 1.929688 -3.957031 1.703125 -3.6875 C 1.484375 -3.414062 1.375 -2.992188 1.375 -2.421875 C 1.375 -1.847656 1.484375 -1.425781 1.703125 -1.15625 C 1.929688 -0.894531 2.242188 -0.765625 2.640625 -0.765625 C 3.273438 -0.765625 3.660156 -1.066406 3.796875 -1.671875 L 3.890625 -1.671875 L 4.59375 -1.3125 C 4.457031 -0.851562 4.226562 -0.507812 3.90625 -0.28125 C 3.59375 -0.0507812 3.171875 0.0625 2.640625 0.0625 Z M 2.640625 0.0625 "/></g></g><g transform="translate(24.318334, 7.515792)"><g><path d="M 1.59375 0 L 0.625 0 L 0.625 -4.84375 L 1.59375 -4.84375 Z M 1.59375 0 "/></g></g><g transform="translate(26.534376, 7.515792)"><g><path d="M 4.640625 0 L 3.640625 0 L 3.28125 -1.109375 L 1.421875 -1.109375 L 1.0625 0 L 0.078125 0 L 1.75 -4.84375 L 2.96875 -4.84375 Z M 2.296875 -3.828125 L 1.671875 -1.921875 L 3.015625 -1.921875 L 2.390625 -3.828125 Z M 2.296875 -3.828125 "/></g></g></g><g fill="#000000" fill-opacity="1"><g transform="translate(30.817622, 7.515792)"><g><path d="M 3.875 -4.84375 L 3.875 -4.03125 L 2.484375 -4.03125 L 2.484375 0 L 1.53125 0 L 1.53125 -4.03125 L 0.125 -4.03125 L 0.125 -4.84375 Z M 3.875 -4.84375 "/></g></g><g transform="translate(34.826344, 7.515792)"><g><path d="M 1.59375 0 L 0.625 0 L 0.625 -4.84375 L 1.59375 -4.84375 Z M 1.59375 0 "/></g></g><g transform="translate(37.042386, 7.515792)"><g><path d="M 2.640625 0.0625 C 2.191406 0.0625 1.796875 -0.0234375 1.453125 -0.203125 C 1.117188 -0.378906 0.851562 -0.65625 0.65625 -1.03125 C 0.46875 -1.40625 0.375 -1.867188 0.375 -2.421875 C 0.375 -2.972656 0.46875 -3.4375 0.65625 -3.8125 C 0.851562 -4.1875 1.117188 -4.460938 1.453125 -4.640625 C 1.796875 -4.816406 2.191406 -4.90625 2.640625 -4.90625 C 3.078125 -4.90625 3.460938 -4.816406 3.796875 -4.640625 C 4.140625 -4.460938 4.40625 -4.1875 4.59375 -3.8125 C 4.789062 -3.4375 4.890625 -2.972656 4.890625 -2.421875 C 4.890625 -1.867188 4.789062 -1.40625 4.59375 -1.03125 C 4.40625 -0.65625 4.140625 -0.378906 3.796875 -0.203125 C 3.460938 -0.0234375 3.078125 0.0625 2.640625 0.0625 Z M 2.640625 -0.765625 C 3.046875 -0.765625 3.359375 -0.894531 3.578125 -1.15625 C 3.796875 -1.414062 3.90625 -1.835938 3.90625 -2.421875 C 3.90625 -2.992188 3.796875 -3.410156 3.578125 -3.671875 C 3.359375 -3.941406 3.046875 -4.078125 2.640625 -4.078125 C 2.222656 -4.078125 1.90625 -3.941406 1.6875 -3.671875 C 1.476562 -3.410156 1.375 -2.992188 1.375 -2.421875 C 1.375 -1.835938 1.476562 -1.414062 1.6875 -1.15625 C 1.90625 -0.894531 2.222656 -0.765625 2.640625 -0.765625 Z M 2.640625 -0.765625 "/></g></g><g transform="translate(42.311275, 7.515792)"><g><path d="M 1.5625 0 L 0.625 0 L 0.625 -4.84375 L 1.71875 -4.84375 L 3.671875 -1.71875 L 3.75 -1.734375 L 3.75 -4.84375 L 4.671875 -4.84375 L 4.671875 0 L 3.6875 0 L 1.640625 -3.328125 L 1.5625 -3.3125 Z M 1.5625 0 "/></g></g></g></g></g></svg>