<svg xmlns="http://www.w3.org/2000/svg" xmlns:xlink="http://www.w3.org/1999/xlink" width="100" zoomAndPan="magnify" viewBox="0 0 75 30.000001" height="40" preserveAspectRatio="xMidYMid meet" version="1.0"><defs><g/><clipPath id="c943eaf67a"><path d="M 1.210938 2 L 48 2 L 48 27 L 1.210938 27 Z M 1.210938 2 " clip-rule="nonzero"/></clipPath><clipPath id="672c4ff1d0"><path d="M 0.210938 4 L 13 4 L 13 19 L 0.210938 19 Z M 0.210938 4 " clip-rule="nonzero"/></clipPath><clipPath id="474ed7dc4d"><rect x="0" width="47" y="0" height="25"/></clipPath><clipPath id="6690bf4d93"><path d="M 1 2 L 14.507812 2 L 14.507812 5 L 1 5 Z M 1 2 " clip-rule="nonzero"/></clipPath><clipPath id="2082fa314e"><rect x="0" width="15" y="0" height="7"/></clipPath><clipPath id="7039fa9c4a"><path d="M 0.570312 2 L 19 2 L 19 6 L 0.570312 6 Z M 0.570312 2 " clip-rule="nonzero"/></clipPath><clipPath id="6a2b90e7f6"><rect x="0" width="27" y="0" height="7"/></clipPath><clipPath id="9a6b813981"><path d="M 45 16 L 73.789062 16 L 73.789062 22 L 45 22 Z M 45 16 " clip-rule="nonzero"/></clipPath><clipPath id="1a2aa8b713"><rect x="0" width="29" y="0" height="6"/></clipPath></defs><g clip-path="url(#c943eaf67a)"><g transform="matrix(1, 0, 0, 1, 1, 2)"><g clip-path="url(#474ed7dc4d)"><g clip-path="url(#672c4ff1d0)"><g fill="#000000" fill-opacity="1"><g transform="translate(-0.425282, 18.474054)"><g><path d="M 12.4375 -3.46875 L 12.4375 0 L 1.109375 0 L 1.109375 -13.625 L 12.1875 -13.625 L 12.1875 -10.15625 L 5.625 -10.15625 L 5.625 -8.5625 L 11.390625 -8.5625 L 11.390625 -5.25 L 5.625 -5.25 L 5.625 -3.46875 Z M 12.4375 -3.46875 "/></g></g></g></g><g fill="#000000" fill-opacity="1"><g transform="translate(12.668985, 18.474054)"><g><path d="M 10.390625 -2.375 L 5.21875 -2.375 L 4.296875 0 L -0.375 0 L 5.59375 -13.625 L 10.109375 -13.625 L 16.0625 0 L 11.3125 0 Z M 9.125 -5.6875 L 7.8125 -9.109375 L 6.484375 -5.6875 Z M 9.125 -5.6875 "/></g></g></g><g fill="#000000" fill-opacity="1"><g transform="translate(29.032179, 18.474054)"><g><path d="M 10.390625 -2.375 L 5.21875 -2.375 L 4.296875 0 L -0.375 0 L 5.59375 -13.625 L 10.109375 -13.625 L 16.0625 0 L 11.3125 0 Z M 9.125 -5.6875 L 7.8125 -9.109375 L 6.484375 -5.6875 Z M 9.125 -5.6875 "/></g></g></g></g></g></g><g transform="matrix(1, 0, 0, 1, 45, 5)"><g clip-path="url(#2082fa314e)"><g clip-path="url(#6690bf4d93)"><g fill="#000000" fill-opacity="1"><g transform="translate(0.832014, 4.894031)"><g><path d="M 0.921875 -1.234375 L 0.921875 -0.46875 L 2.25 -0.46875 L 2.25 0 L 0.359375 0 L 0.359375 -2.796875 L 2.21875 -2.796875 L 2.21875 -2.34375 L 0.921875 -2.34375 L 0.921875 -1.6875 L 2.0625 -1.6875 L 2.0625 -1.234375 Z M 0.921875 -1.234375 "/></g></g><g transform="translate(3.240579, 4.894031)"><g><path d="M 0.359375 0 L 0.359375 -2.796875 L 1.484375 -2.796875 C 1.773438 -2.796875 1.992188 -2.726562 2.140625 -2.59375 C 2.285156 -2.46875 2.359375 -2.285156 2.359375 -2.046875 C 2.359375 -1.878906 2.316406 -1.738281 2.234375 -1.625 C 2.148438 -1.519531 2.019531 -1.4375 1.84375 -1.375 L 1.84375 -1.34375 C 1.9375 -1.300781 2.007812 -1.242188 2.0625 -1.171875 C 2.113281 -1.097656 2.164062 -0.984375 2.21875 -0.828125 L 2.5 0 L 1.921875 0 L 1.65625 -0.84375 C 1.625 -0.925781 1.585938 -0.988281 1.546875 -1.03125 C 1.515625 -1.082031 1.472656 -1.117188 1.421875 -1.140625 C 1.367188 -1.160156 1.300781 -1.171875 1.21875 -1.171875 L 0.921875 -1.171875 L 0.921875 0 Z M 1.421875 -1.609375 C 1.691406 -1.609375 1.828125 -1.734375 1.828125 -1.984375 C 1.828125 -2.234375 1.691406 -2.359375 1.421875 -2.359375 L 0.921875 -2.359375 L 0.921875 -1.609375 Z M 1.421875 -1.609375 "/></g></g><g transform="translate(5.859918, 4.894031)"><g><path d="M 1.53125 0.046875 C 1.269531 0.046875 1.039062 -0.00390625 0.84375 -0.109375 C 0.644531 -0.222656 0.488281 -0.382812 0.375 -0.59375 C 0.269531 -0.8125 0.21875 -1.082031 0.21875 -1.40625 C 0.21875 -1.71875 0.269531 -1.984375 0.375 -2.203125 C 0.488281 -2.421875 0.644531 -2.582031 0.84375 -2.6875 C 1.039062 -2.789062 1.269531 -2.84375 1.53125 -2.84375 C 1.78125 -2.84375 2.003906 -2.789062 2.203125 -2.6875 C 2.398438 -2.582031 2.550781 -2.421875 2.65625 -2.203125 C 2.769531 -1.984375 2.828125 -1.71875 2.828125 -1.40625 C 2.828125 -1.082031 2.769531 -0.8125 2.65625 -0.59375 C 2.550781 -0.375 2.398438 -0.210938 2.203125 -0.109375 C 2.003906 -0.00390625 1.78125 0.046875 1.53125 0.046875 Z M 1.53125 -0.4375 C 1.757812 -0.4375 1.9375 -0.507812 2.0625 -0.65625 C 2.1875 -0.8125 2.25 -1.0625 2.25 -1.40625 C 2.25 -1.738281 2.1875 -1.976562 2.0625 -2.125 C 1.9375 -2.28125 1.757812 -2.359375 1.53125 -2.359375 C 1.289062 -2.359375 1.109375 -2.28125 0.984375 -2.125 C 0.859375 -1.976562 0.796875 -1.738281 0.796875 -1.40625 C 0.796875 -1.0625 0.859375 -0.8125 0.984375 -0.65625 C 1.109375 -0.507812 1.289062 -0.4375 1.53125 -0.4375 Z M 1.53125 -0.4375 "/></g></g><g transform="translate(8.9123, 4.894031)"><g><path d="M 1.375 -2.796875 C 1.820312 -2.796875 2.164062 -2.675781 2.40625 -2.4375 C 2.644531 -2.207031 2.765625 -1.863281 2.765625 -1.40625 C 2.765625 -0.9375 2.644531 -0.582031 2.40625 -0.34375 C 2.164062 -0.113281 1.820312 0 1.375 0 L 0.359375 0 L 0.359375 -2.796875 Z M 1.34375 -0.46875 C 1.625 -0.46875 1.835938 -0.539062 1.984375 -0.6875 C 2.128906 -0.832031 2.203125 -1.070312 2.203125 -1.40625 C 2.203125 -1.726562 2.128906 -1.960938 1.984375 -2.109375 C 1.835938 -2.253906 1.625 -2.328125 1.34375 -2.328125 L 0.921875 -2.328125 L 0.921875 -0.46875 Z M 1.34375 -0.46875 "/></g></g><g transform="translate(11.907198, 4.894031)"><g><path d="M 0.921875 -1.234375 L 0.921875 -0.46875 L 2.25 -0.46875 L 2.25 0 L 0.359375 0 L 0.359375 -2.796875 L 2.21875 -2.796875 L 2.21875 -2.34375 L 0.921875 -2.34375 L 0.921875 -1.6875 L 2.0625 -1.6875 L 2.0625 -1.234375 Z M 0.921875 -1.234375 "/></g></g></g></g></g></g><g transform="matrix(1, 0, 0, 1, 45, 10)"><g clip-path="url(#6a2b90e7f6)"><g clip-path="url(#7039fa9c4a)"><g fill="#000000" fill-opacity="1"><g transform="translate(0.947913, 5.10956)"><g><path d="M 2.71875 0 L 2.125 0 L 1.921875 -0.65625 L 0.828125 -0.65625 L 0.625 0 L 0.046875 0 L 1.015625 -2.828125 L 1.734375 -2.828125 Z M 1.34375 -2.234375 L 0.984375 -1.125 L 1.765625 -1.125 L 1.390625 -2.234375 Z M 1.34375 -2.234375 "/></g></g><g transform="translate(3.711071, 5.10956)"><g><path d="M 0.375 0 L 0.375 -2.828125 L 1.5 -2.828125 C 1.800781 -2.828125 2.023438 -2.757812 2.171875 -2.625 C 2.316406 -2.488281 2.390625 -2.304688 2.390625 -2.078125 C 2.390625 -1.898438 2.34375 -1.753906 2.25 -1.640625 C 2.164062 -1.535156 2.039062 -1.453125 1.875 -1.390625 L 1.875 -1.359375 C 1.957031 -1.316406 2.023438 -1.253906 2.078125 -1.171875 C 2.140625 -1.097656 2.195312 -0.988281 2.25 -0.84375 L 2.53125 0 L 1.953125 0 L 1.671875 -0.84375 C 1.640625 -0.925781 1.609375 -0.988281 1.578125 -1.03125 C 1.546875 -1.082031 1.5 -1.117188 1.4375 -1.140625 C 1.382812 -1.171875 1.316406 -1.1875 1.234375 -1.1875 L 0.921875 -1.1875 L 0.921875 0 Z M 1.4375 -1.625 C 1.707031 -1.625 1.84375 -1.75 1.84375 -2 C 1.84375 -2.257812 1.707031 -2.390625 1.4375 -2.390625 L 0.921875 -2.390625 L 0.921875 -1.625 Z M 1.4375 -1.625 "/></g></g><g transform="translate(6.361764, 5.10956)"><g><path d="M 1.546875 0.046875 C 1.285156 0.046875 1.054688 -0.00390625 0.859375 -0.109375 C 0.660156 -0.222656 0.503906 -0.390625 0.390625 -0.609375 C 0.273438 -0.828125 0.21875 -1.097656 0.21875 -1.421875 C 0.21875 -1.734375 0.273438 -2 0.390625 -2.21875 C 0.503906 -2.4375 0.660156 -2.597656 0.859375 -2.703125 C 1.054688 -2.816406 1.285156 -2.875 1.546875 -2.875 C 1.816406 -2.875 2.046875 -2.816406 2.234375 -2.703125 C 2.429688 -2.597656 2.570312 -2.441406 2.65625 -2.234375 L 2.234375 -1.984375 L 2.1875 -1.984375 C 2.132812 -2.128906 2.054688 -2.234375 1.953125 -2.296875 C 1.847656 -2.359375 1.710938 -2.390625 1.546875 -2.390625 C 1.316406 -2.390625 1.132812 -2.3125 1 -2.15625 C 0.863281 -2 0.796875 -1.753906 0.796875 -1.421875 C 0.796875 -1.078125 0.863281 -0.828125 1 -0.671875 C 1.132812 -0.515625 1.316406 -0.4375 1.546875 -0.4375 C 1.910156 -0.4375 2.132812 -0.617188 2.21875 -0.984375 L 2.265625 -0.984375 L 2.6875 -0.765625 C 2.601562 -0.492188 2.46875 -0.289062 2.28125 -0.15625 C 2.09375 -0.0195312 1.847656 0.046875 1.546875 0.046875 Z M 1.546875 0.046875 "/></g></g><g transform="translate(9.142374, 5.10956)"><g><path d="M 2.203125 -1.765625 L 2.203125 -2.828125 L 2.75 -2.828125 L 2.75 0 L 2.203125 0 L 2.203125 -1.296875 L 0.921875 -1.296875 L 0.921875 0 L 0.375 0 L 0.375 -2.828125 L 0.921875 -2.828125 L 0.921875 -1.765625 Z M 2.203125 -1.765625 "/></g></g><g transform="translate(12.270075, 5.10956)"><g><path d="M 0.921875 0 L 0.375 0 L 0.375 -2.828125 L 0.921875 -2.828125 Z M 0.921875 0 "/></g></g><g transform="translate(13.569244, 5.10956)"><g><path d="M 2.265625 -2.828125 L 2.265625 -2.359375 L 1.453125 -2.359375 L 1.453125 0 L 0.890625 0 L 0.890625 -2.359375 L 0.078125 -2.359375 L 0.078125 -2.828125 Z M 2.265625 -2.828125 "/></g></g><g transform="translate(15.919383, 5.10956)"><g><path d="M 0.921875 -1.25 L 0.921875 -0.46875 L 2.28125 -0.46875 L 2.28125 0 L 0.375 0 L 0.375 -2.828125 L 2.25 -2.828125 L 2.25 -2.359375 L 0.921875 -2.359375 L 0.921875 -1.703125 L 2.078125 -1.703125 L 2.078125 -1.25 Z M 0.921875 -1.25 "/></g></g></g></g><g fill="#000000" fill-opacity="1"><g transform="translate(18.31606, 5.10956)"><g><path d="M 1.546875 0.046875 C 1.285156 0.046875 1.054688 -0.00390625 0.859375 -0.109375 C 0.660156 -0.222656 0.503906 -0.390625 0.390625 -0.609375 C 0.273438 -0.828125 0.21875 -1.097656 0.21875 -1.421875 C 0.21875 -1.734375 0.273438 -2 0.390625 -2.21875 C 0.503906 -2.4375 0.660156 -2.597656 0.859375 -2.703125 C 1.054688 -2.816406 1.285156 -2.875 1.546875 -2.875 C 1.816406 -2.875 2.046875 -2.816406 2.234375 -2.703125 C 2.429688 -2.597656 2.570312 -2.441406 2.65625 -2.234375 L 2.234375 -1.984375 L 2.1875 -1.984375 C 2.132812 -2.128906 2.054688 -2.234375 1.953125 -2.296875 C 1.847656 -2.359375 1.710938 -2.390625 1.546875 -2.390625 C 1.316406 -2.390625 1.132812 -2.3125 1 -2.15625 C 0.863281 -2 0.796875 -1.753906 0.796875 -1.421875 C 0.796875 -1.078125 0.863281 -0.828125 1 -0.671875 C 1.132812 -0.515625 1.316406 -0.4375 1.546875 -0.4375 C 1.910156 -0.4375 2.132812 -0.617188 2.21875 -0.984375 L 2.265625 -0.984375 L 2.6875 -0.765625 C 2.601562 -0.492188 2.46875 -0.289062 2.28125 -0.15625 C 2.09375 -0.0195312 1.847656 0.046875 1.546875 0.046875 Z M 1.546875 0.046875 "/></g></g><g transform="translate(21.096669, 5.10956)"><g><path d="M 2.265625 -2.828125 L 2.265625 -2.359375 L 1.453125 -2.359375 L 1.453125 0 L 0.890625 0 L 0.890625 -2.359375 L 0.078125 -2.359375 L 0.078125 -2.828125 Z M 2.265625 -2.828125 "/></g></g></g><g fill="#000000" fill-opacity="1"><g transform="translate(23.479772, 5.10956)"><g><path d="M 1.25 0.046875 C 1.0625 0.046875 0.890625 0.0195312 0.734375 -0.03125 C 0.578125 -0.0820312 0.445312 -0.144531 0.34375 -0.21875 C 0.25 -0.300781 0.171875 -0.390625 0.109375 -0.484375 L 0.421875 -0.859375 L 0.46875 -0.859375 C 0.550781 -0.734375 0.660156 -0.628906 0.796875 -0.546875 C 0.929688 -0.472656 1.082031 -0.4375 1.25 -0.4375 C 1.40625 -0.4375 1.519531 -0.46875 1.59375 -0.53125 C 1.664062 -0.601562 1.703125 -0.691406 1.703125 -0.796875 C 1.703125 -0.867188 1.691406 -0.925781 1.671875 -0.96875 C 1.648438 -1.007812 1.609375 -1.046875 1.546875 -1.078125 C 1.492188 -1.117188 1.414062 -1.148438 1.3125 -1.171875 L 0.953125 -1.25 C 0.703125 -1.3125 0.515625 -1.410156 0.390625 -1.546875 C 0.265625 -1.679688 0.203125 -1.851562 0.203125 -2.0625 C 0.203125 -2.226562 0.238281 -2.367188 0.3125 -2.484375 C 0.394531 -2.609375 0.515625 -2.703125 0.671875 -2.765625 C 0.828125 -2.835938 1.007812 -2.875 1.21875 -2.875 C 1.4375 -2.875 1.625 -2.84375 1.78125 -2.78125 C 1.9375 -2.726562 2.066406 -2.640625 2.171875 -2.515625 L 1.890625 -2.140625 L 1.84375 -2.140625 C 1.769531 -2.222656 1.679688 -2.285156 1.578125 -2.328125 C 1.472656 -2.367188 1.351562 -2.390625 1.21875 -2.390625 C 1.0625 -2.390625 0.941406 -2.363281 0.859375 -2.3125 C 0.785156 -2.257812 0.75 -2.1875 0.75 -2.09375 C 0.75 -2 0.773438 -1.925781 0.828125 -1.875 C 0.890625 -1.820312 0.988281 -1.78125 1.125 -1.75 L 1.5 -1.671875 C 1.769531 -1.617188 1.96875 -1.519531 2.09375 -1.375 C 2.21875 -1.238281 2.28125 -1.054688 2.28125 -0.828125 C 2.28125 -0.648438 2.238281 -0.492188 2.15625 -0.359375 C 2.082031 -0.234375 1.96875 -0.132812 1.8125 -0.0625 C 1.664062 0.0078125 1.476562 0.046875 1.25 0.046875 Z M 1.25 0.046875 "/></g></g></g></g></g><g clip-path="url(#9a6b813981)"><g transform="matrix(1, 0, 0, 1, 45, 16)"><g clip-path="url(#1a2aa8b713)"><g fill="#000000" fill-opacity="1"><g transform="translate(1.272694, 4.300911)"><g><path d="M 2.703125 0 L 2.109375 0 L 1.90625 -0.640625 L 0.828125 -0.640625 L 0.609375 0 L 0.046875 0 L 1.015625 -2.8125 L 1.71875 -2.8125 Z M 1.34375 -2.21875 L 0.96875 -1.109375 L 1.75 -1.109375 L 1.390625 -2.21875 Z M 1.34375 -2.21875 "/></g></g><g transform="translate(4.008686, 4.300911)"><g><path d="M 1.25 0.046875 C 1.050781 0.046875 0.875 0.0195312 0.71875 -0.03125 C 0.570312 -0.0820312 0.445312 -0.144531 0.34375 -0.21875 C 0.238281 -0.300781 0.160156 -0.390625 0.109375 -0.484375 L 0.421875 -0.859375 L 0.46875 -0.859375 C 0.550781 -0.722656 0.65625 -0.617188 0.78125 -0.546875 C 0.914062 -0.472656 1.070312 -0.4375 1.25 -0.4375 C 1.394531 -0.4375 1.503906 -0.46875 1.578125 -0.53125 C 1.660156 -0.59375 1.703125 -0.679688 1.703125 -0.796875 C 1.703125 -0.859375 1.6875 -0.910156 1.65625 -0.953125 C 1.632812 -1.003906 1.59375 -1.046875 1.53125 -1.078125 C 1.476562 -1.109375 1.40625 -1.132812 1.3125 -1.15625 L 0.953125 -1.234375 C 0.691406 -1.296875 0.5 -1.394531 0.375 -1.53125 C 0.257812 -1.664062 0.203125 -1.835938 0.203125 -2.046875 C 0.203125 -2.210938 0.238281 -2.351562 0.3125 -2.46875 C 0.394531 -2.59375 0.507812 -2.6875 0.65625 -2.75 C 0.8125 -2.8125 0.992188 -2.84375 1.203125 -2.84375 C 1.421875 -2.84375 1.609375 -2.816406 1.765625 -2.765625 C 1.921875 -2.710938 2.050781 -2.625 2.15625 -2.5 L 1.875 -2.125 L 1.828125 -2.125 C 1.753906 -2.207031 1.664062 -2.269531 1.5625 -2.3125 C 1.457031 -2.351562 1.335938 -2.375 1.203125 -2.375 C 1.054688 -2.375 0.941406 -2.347656 0.859375 -2.296875 C 0.773438 -2.242188 0.734375 -2.171875 0.734375 -2.078125 C 0.734375 -1.984375 0.757812 -1.910156 0.8125 -1.859375 C 0.875 -1.804688 0.972656 -1.765625 1.109375 -1.734375 L 1.484375 -1.65625 C 1.753906 -1.601562 1.953125 -1.503906 2.078125 -1.359375 C 2.203125 -1.222656 2.265625 -1.046875 2.265625 -0.828125 C 2.265625 -0.648438 2.222656 -0.492188 2.140625 -0.359375 C 2.066406 -0.234375 1.953125 -0.132812 1.796875 -0.0625 C 1.648438 0.0078125 1.46875 0.046875 1.25 0.046875 Z M 1.25 0.046875 "/></g></g><g transform="translate(6.4202, 4.300911)"><g><path d="M 1.25 0.046875 C 1.050781 0.046875 0.875 0.0195312 0.71875 -0.03125 C 0.570312 -0.0820312 0.445312 -0.144531 0.34375 -0.21875 C 0.238281 -0.300781 0.160156 -0.390625 0.109375 -0.484375 L 0.421875 -0.859375 L 0.46875 -0.859375 C 0.550781 -0.722656 0.65625 -0.617188 0.78125 -0.546875 C 0.914062 -0.472656 1.070312 -0.4375 1.25 -0.4375 C 1.394531 -0.4375 1.503906 -0.46875 1.578125 -0.53125 C 1.660156 -0.59375 1.703125 -0.679688 1.703125 -0.796875 C 1.703125 -0.859375 1.6875 -0.910156 1.65625 -0.953125 C 1.632812 -1.003906 1.59375 -1.046875 1.53125 -1.078125 C 1.476562 -1.109375 1.40625 -1.132812 1.3125 -1.15625 L 0.953125 -1.234375 C 0.691406 -1.296875 0.5 -1.394531 0.375 -1.53125 C 0.257812 -1.664062 0.203125 -1.835938 0.203125 -2.046875 C 0.203125 -2.210938 0.238281 -2.351562 0.3125 -2.46875 C 0.394531 -2.59375 0.507812 -2.6875 0.65625 -2.75 C 0.8125 -2.8125 0.992188 -2.84375 1.203125 -2.84375 C 1.421875 -2.84375 1.609375 -2.816406 1.765625 -2.765625 C 1.921875 -2.710938 2.050781 -2.625 2.15625 -2.5 L 1.875 -2.125 L 1.828125 -2.125 C 1.753906 -2.207031 1.664062 -2.269531 1.5625 -2.3125 C 1.457031 -2.351562 1.335938 -2.375 1.203125 -2.375 C 1.054688 -2.375 0.941406 -2.347656 0.859375 -2.296875 C 0.773438 -2.242188 0.734375 -2.171875 0.734375 -2.078125 C 0.734375 -1.984375 0.757812 -1.910156 0.8125 -1.859375 C 0.875 -1.804688 0.972656 -1.765625 1.109375 -1.734375 L 1.484375 -1.65625 C 1.753906 -1.601562 1.953125 -1.503906 2.078125 -1.359375 C 2.203125 -1.222656 2.265625 -1.046875 2.265625 -0.828125 C 2.265625 -0.648438 2.222656 -0.492188 2.140625 -0.359375 C 2.066406 -0.234375 1.953125 -0.132812 1.796875 -0.0625 C 1.648438 0.0078125 1.46875 0.046875 1.25 0.046875 Z M 1.25 0.046875 "/></g></g><g transform="translate(8.831713, 4.300911)"><g><path d="M 1.53125 0.046875 C 1.269531 0.046875 1.039062 -0.00390625 0.84375 -0.109375 C 0.65625 -0.222656 0.503906 -0.382812 0.390625 -0.59375 C 0.273438 -0.8125 0.21875 -1.082031 0.21875 -1.40625 C 0.21875 -1.726562 0.273438 -1.992188 0.390625 -2.203125 C 0.503906 -2.421875 0.65625 -2.582031 0.84375 -2.6875 C 1.039062 -2.789062 1.269531 -2.84375 1.53125 -2.84375 C 1.789062 -2.84375 2.015625 -2.789062 2.203125 -2.6875 C 2.398438 -2.582031 2.554688 -2.421875 2.671875 -2.203125 C 2.785156 -1.992188 2.84375 -1.726562 2.84375 -1.40625 C 2.84375 -1.082031 2.785156 -0.8125 2.671875 -0.59375 C 2.554688 -0.375 2.398438 -0.210938 2.203125 -0.109375 C 2.015625 -0.00390625 1.789062 0.046875 1.53125 0.046875 Z M 1.53125 -0.4375 C 1.769531 -0.4375 1.953125 -0.515625 2.078125 -0.671875 C 2.203125 -0.828125 2.265625 -1.070312 2.265625 -1.40625 C 2.265625 -1.738281 2.203125 -1.984375 2.078125 -2.140625 C 1.953125 -2.296875 1.769531 -2.375 1.53125 -2.375 C 1.289062 -2.375 1.109375 -2.296875 0.984375 -2.140625 C 0.859375 -1.984375 0.796875 -1.738281 0.796875 -1.40625 C 0.796875 -1.070312 0.859375 -0.828125 0.984375 -0.671875 C 1.109375 -0.515625 1.289062 -0.4375 1.53125 -0.4375 Z M 1.53125 -0.4375 "/></g></g><g transform="translate(11.890264, 4.300911)"><g><path d="M 1.53125 0.046875 C 1.269531 0.046875 1.039062 -0.00390625 0.84375 -0.109375 C 0.65625 -0.222656 0.503906 -0.390625 0.390625 -0.609375 C 0.273438 -0.828125 0.21875 -1.09375 0.21875 -1.40625 C 0.21875 -1.71875 0.273438 -1.984375 0.390625 -2.203125 C 0.503906 -2.421875 0.65625 -2.582031 0.84375 -2.6875 C 1.039062 -2.789062 1.269531 -2.84375 1.53125 -2.84375 C 1.800781 -2.84375 2.03125 -2.789062 2.21875 -2.6875 C 2.414062 -2.582031 2.550781 -2.421875 2.625 -2.203125 L 2.21875 -1.96875 L 2.171875 -1.96875 C 2.117188 -2.113281 2.039062 -2.21875 1.9375 -2.28125 C 1.832031 -2.34375 1.695312 -2.375 1.53125 -2.375 C 1.300781 -2.375 1.117188 -2.296875 0.984375 -2.140625 C 0.859375 -1.984375 0.796875 -1.738281 0.796875 -1.40625 C 0.796875 -1.070312 0.859375 -0.828125 0.984375 -0.671875 C 1.117188 -0.515625 1.300781 -0.4375 1.53125 -0.4375 C 1.894531 -0.4375 2.117188 -0.613281 2.203125 -0.96875 L 2.25 -0.96875 L 2.671875 -0.765625 C 2.585938 -0.492188 2.453125 -0.289062 2.265625 -0.15625 C 2.078125 -0.0195312 1.832031 0.046875 1.53125 0.046875 Z M 1.53125 0.046875 "/></g></g><g transform="translate(14.643537, 4.300911)"><g><path d="M 0.921875 0 L 0.359375 0 L 0.359375 -2.8125 L 0.921875 -2.8125 Z M 0.921875 0 "/></g></g><g transform="translate(15.929933, 4.300911)"><g><path d="M 2.703125 0 L 2.109375 0 L 1.90625 -0.640625 L 0.828125 -0.640625 L 0.609375 0 L 0.046875 0 L 1.015625 -2.8125 L 1.71875 -2.8125 Z M 1.34375 -2.21875 L 0.96875 -1.109375 L 1.75 -1.109375 L 1.390625 -2.21875 Z M 1.34375 -2.21875 "/></g></g></g><g fill="#000000" fill-opacity="1"><g transform="translate(18.416326, 4.300911)"><g><path d="M 2.25 -2.8125 L 2.25 -2.34375 L 1.4375 -2.34375 L 1.4375 0 L 0.890625 0 L 0.890625 -2.34375 L 0.078125 -2.34375 L 0.078125 -2.8125 Z M 2.25 -2.8125 "/></g></g><g transform="translate(20.743359, 4.300911)"><g><path d="M 0.921875 0 L 0.359375 0 L 0.359375 -2.8125 L 0.921875 -2.8125 Z M 0.921875 0 "/></g></g><g transform="translate(22.029756, 4.300911)"><g><path d="M 1.53125 0.046875 C 1.269531 0.046875 1.039062 -0.00390625 0.84375 -0.109375 C 0.65625 -0.222656 0.503906 -0.382812 0.390625 -0.59375 C 0.273438 -0.8125 0.21875 -1.082031 0.21875 -1.40625 C 0.21875 -1.726562 0.273438 -1.992188 0.390625 -2.203125 C 0.503906 -2.421875 0.65625 -2.582031 0.84375 -2.6875 C 1.039062 -2.789062 1.269531 -2.84375 1.53125 -2.84375 C 1.789062 -2.84375 2.015625 -2.789062 2.203125 -2.6875 C 2.398438 -2.582031 2.554688 -2.421875 2.671875 -2.203125 C 2.785156 -1.992188 2.84375 -1.726562 2.84375 -1.40625 C 2.84375 -1.082031 2.785156 -0.8125 2.671875 -0.59375 C 2.554688 -0.375 2.398438 -0.210938 2.203125 -0.109375 C 2.015625 -0.00390625 1.789062 0.046875 1.53125 0.046875 Z M 1.53125 -0.4375 C 1.769531 -0.4375 1.953125 -0.515625 2.078125 -0.671875 C 2.203125 -0.828125 2.265625 -1.070312 2.265625 -1.40625 C 2.265625 -1.738281 2.203125 -1.984375 2.078125 -2.140625 C 1.953125 -2.296875 1.769531 -2.375 1.53125 -2.375 C 1.289062 -2.375 1.109375 -2.296875 0.984375 -2.140625 C 0.859375 -1.984375 0.796875 -1.738281 0.796875 -1.40625 C 0.796875 -1.070312 0.859375 -0.828125 0.984375 -0.671875 C 1.109375 -0.515625 1.289062 -0.4375 1.53125 -0.4375 Z M 1.53125 -0.4375 "/></g></g><g transform="translate(25.088307, 4.300911)"><g><path d="M 0.90625 0 L 0.359375 0 L 0.359375 -2.8125 L 1 -2.8125 L 2.125 -1 L 2.1875 -1 L 2.1875 -2.8125 L 2.71875 -2.8125 L 2.71875 0 L 2.140625 0 L 0.953125 -1.9375 L 0.90625 -1.921875 Z M 0.90625 0 "/></g></g></g></g></g></g></svg>